<svg xmlns="http://www.w3.org/2000/svg" viewBox="0 0 400 400">
  <defs>
    <linearGradient id="sky" x1="0" y1="0" x2="1" y2="1">
      <stop offset="0%" stop-color="#03045e"/>
      <stop offset="100%" stop-color="#48cae4"/>
    </linearGradient>
    <linearGradient id="water" x1="0" y1="0" x2="0" y2="1">
      <stop offset="0%" stop-color="#0077b6"/>
      <stop offset="100%" stop-color="#023e8a"/>
    </linearGradient>
  </defs>
  <rect width="400" height="400" fill="url(#sky)"/>
  <rect y="230" width="400" height="170" fill="url(#water)"/>
  <path d="M0 230 Q100 210 200 228 T400 218 L400 400 L0 400 Z" fill="#001d3d" opacity="0.35"/>
  <path d="M0 250 L50 235 L120 248 L200 220 L280 242 L350 225 L400 238 L400 400 L0 400 Z" fill="#0a1128"/>
  <path d="M120 248 L140 190 L160 248 Z" fill="#1b263b"/>
  <path d="M260 242 L278 175 L296 242 Z" fill="#1b263b"/>
  <rect x="136" y="190" width="8" height="58" fill="#415a77"/>
  <rect x="274" y="175" width="8" height="67" fill="#415a77"/>
  <ellipse cx="300" cy="290" rx="90" ry="12" fill="#90e0ef" opacity="0.15"/>
</svg>
