<svg xmlns="http://www.w3.org/2000/svg" viewBox="0 0 64 64" role="img" aria-label="Bursaspor">
  <circle cx="32" cy="32" r="31" fill="#fff" stroke="#006b3f" stroke-width="2"/>
  <path fill="#006b3f" d="M18 38c2-10 10-18 20-18 4 0 8 1 11 4-6 2-10 6-12 11-4-1-8 0-11 3-4 3-6 7-8 0z"/>
  <path fill="#006b3f" d="M38 28c6 2 10 8 10 14h-4c-1-4-4-7-8-9 2-2 2-4 2-5z"/>
  <circle cx="44" cy="26" r="2.5" fill="#006b3f"/>
  <text x="32" y="54" text-anchor="middle" font-family="Arial,sans-serif" font-size="6.5" font-weight="700" fill="#006b3f">BURSA</text>
</svg>
