<svg xmlns="http://www.w3.org/2000/svg" viewBox="0 0 64 64" role="img" aria-label="Saray Kavvesi">
  <defs>
    <linearGradient id="sk-gold" x1="0%" y1="0%" x2="100%" y2="100%">
      <stop offset="0%" stop-color="#e8c872"/>
      <stop offset="100%" stop-color="#a67c2e"/>
    </linearGradient>
    <linearGradient id="sk-cup" x1="0%" y1="0%" x2="0%" y2="100%">
      <stop offset="0%" stop-color="#6f4e2e"/>
      <stop offset="100%" stop-color="#3d2817"/>
    </linearGradient>
  </defs>
  <circle cx="32" cy="32" r="30" fill="#1a120c" stroke="url(#sk-gold)" stroke-width="2"/>
  <path fill="none" stroke="url(#sk-gold)" stroke-width="1.2" opacity="0.55" d="M12 20c6-4 14-6 20-6s14 2 20 6"/>
  <path fill="none" stroke="#e8c872" stroke-width="1.5" stroke-linecap="round" d="M26 14c1-3 3-5 6-5s5 2 6 5"/>
  <path fill="none" stroke="#e8c872" stroke-width="1.2" stroke-linecap="round" opacity="0.7" d="M30 10c0-2 1-3 2-3"/>
  <ellipse cx="32" cy="40" rx="14" ry="5" fill="url(#sk-cup)"/>
  <path fill="url(#sk-cup)" d="M18 28h28c0 8-4 14-14 14S18 36 18 28z"/>
  <ellipse cx="32" cy="28" rx="14" ry="4.5" fill="#8c6239"/>
  <ellipse cx="32" cy="27" rx="11" ry="3" fill="#3d2817" opacity="0.65"/>
  <path fill="none" stroke="url(#sk-gold)" stroke-width="2" d="M46 30c4 0 7 2 7 5s-3 5-7 5"/>
  <path fill="url(#sk-gold)" d="M14 18l4-6h28l4 6H14z"/>
  <circle cx="32" cy="31" r="2.5" fill="#e8c872" opacity="0.85"/>
  <text x="32" y="57" text-anchor="middle" font-family="Georgia,serif" font-size="5.5" font-weight="700" fill="#e8c872">SARAY KAVVES0</text>
</svg>
